{"title":"Sucker.Punch.2011.DVDRIP.XVID.AC3.B-BRG.TheO","uid":6602393,"size":1488381857,"categoryP":"video","categoryS":"movies","magnet":"?xt=urn:btih:1de44d0f038f7565aa35942ee9c4f666dc50b355&amp;dn=Sucker.Punch.2011.DVDRIP.XVID.AC3.B-BRG.TheO&amp;tr=udp%3A%2F%2Ftracker.openbittorrent.com%3A80&amp;tr=udp%3A%2F%2Fopen.demonii.com%3A1337&amp;tr=udp%3A%2F%2Ftracker.coppersurfer.tk%3A6969&amp;tr=udp%3A%2F%2Fexodus.desync.com%3A6969","seeders":0,"leechers":1,"uploader":"sceneline","files":5,"time":1313260599,"description":"- &lt;a href=&quot;\nhttp://www.Speed.Cd&quot; rel=&quot;nofollow&quot; target=&quot;_NEW&quot;&gt;\nhttp://www.Speed.Cd&lt;/a&gt; \n       &lt;a href=&quot;\nhttp://www.Speed.Cd&quot; rel=&quot;nofollow&quot; target=&quot;_NEW&quot;&gt;\nhttp://www.Speed.Cd&lt;/a&gt;      fast  and The Hottest Private Tracker on the net\n\n(((--Registration will be open on june every weekend--)))\n\nPlease Seed back to make the speed Faster!!!\n\n------------------nfo--------------------------\n-     \n  \n   \n   \n                            blues-brothers rg  presents                \n     \n       \n               Sucker.Punch.2011.DVDRIP.XVID.AC3.B-BRG.TheO\n             \n     \n  \n   \n   \n                                encode info                            \n     \n\t    \nFormat                           : AVI\nFormat/Info                      : Audio Video Interleave\nFile size                        : 1.39 GiB\nDuration                         : 1h 45mn\nOverall bit rate                 : 1 885 Kbps\n\nVideo\nID                               : 0\nFormat                           : MPEG-4 Visual\nFormat profile                   : Advanced Simple@L5\nFormat settings, BVOP            : 2\nFormat settings, QPel            : No\nFormat settings, GMC             : No warppoints\nFormat settings, Matrix          : Default (H.263)\nMuxing mode                      : Packed bitstream\nCodec ID                         : XVID\nCodec ID/Hint                    : XviD\nDuration                         : 1h 45mn\nBit rate                         : 1 493 Kbps\nWidth                            : 672 pixels\nHeight                           : 272 pixels\nDisplay aspect ratio             : 2.471\nFrame rate                       : 25.000 fps\nColor space                      : YUV\nChroma subsampling               : 4:2:0\nBit depth                        : 8 bits\nScan type                        : Progressive\nCompression mode                 : Lossy\nBits/(Pixel*Frame)               : 0.327\nStream size                      : 1.10 GiB (79%)\nWriting library                  : XviD 1.2.1 (UTC 2008-12-04)\n\nAudio\nID                               : 1\nFormat                           : AC-3\nFormat/Info                      : Audio Coding 3\nMode extension                   : CM (complete main)\nCodec ID                         : 2000\nDuration                         : 1h 45mn\nBit rate mode                    : Constant\nBit rate                         : 384 Kbps\nChannel(s)                       : 6 channels\nChannel positions                : Front: L C R, Side: L R, LFE\nSampling rate                    : 48.0 KHz\nBit depth                        : 16 bits\nCompression mode                 : Lossy\nStream size                      : 289 MiB (20%)\nAlignment                        : Aligned on interleaves\nInterleave, duration             : 64 ms (1.60 video frames)\nInterleave, preload duration     : 192 ms","torrent":{"xt":"urn:btih:1de44d0f038f7565aa35942ee9c4f666dc50b355","amp;dn":"Sucker.Punch.2011.DVDRIP.XVID.AC3.B-BRG.TheO","amp;tr":["udp%3A%2F%2Ftracker.openbittorrent.com%3A80","udp%3A%2F%2Fopen.demonii.com%3A1337","udp%3A%2F%2Ftracker.coppersurfer.tk%3A6969","udp%3A%2F%2Fexodus.desync.com%3A6969"],"infoHash":"1de44d0f038f7565aa35942ee9c4f666dc50b355","infoHashBuffer":{"type":"Buffer","data":[29,228,77,15,3,143,117,101,170,53,148,46,233,196,246,102,220,80,179,85]},"announce":[],"urlList":[]}}